<svg width="32" height="32" viewBox="0 0 32 32" fill="none" xmlns="http://www.w3.org/2000/svg">
<path d="M15 2H17V7H15V2ZM21.688 8.9L25.194 5.394L26.608 6.808L23.102 10.314L21.688 8.9ZM25 15H30V17H25V15ZM21.688 23.1L23.102 21.687L26.608 25.193L25.194 26.607L21.688 23.1ZM15 25H17V30H15V25ZM5.394 25.192L8.9 21.686L10.314 23.1L6.809 26.606L5.394 25.192ZM2 15H7V17H2V15ZM5.395 6.808L6.809 5.394L10.315 8.9L8.9 10.314L5.395 6.808ZM16 12C16.7911 12 17.5645 12.2346 18.2223 12.6741C18.8801 13.1136 19.3928 13.7384 19.6955 14.4693C19.9983 15.2002 20.0775 16.0044 19.9231 16.7804C19.7688 17.5563 19.3878 18.269 18.8284 18.8284C18.269 19.3878 17.5563 19.7688 16.7804 19.9231C16.0044 20.0775 15.2002 19.9983 14.4693 19.6955C13.7384 19.3928 13.1136 18.8801 12.6741 18.2223C12.2346 17.5645 12 16.7911 12 16C12.0013 14.9395 12.4232 13.9229 13.173 13.173C13.9229 12.4232 14.9395 12.0013 16 12ZM16 10C14.8133 10 13.6533 10.3519 12.6666 11.0112C11.6799 11.6705 10.9108 12.6075 10.4567 13.7039C10.0026 14.8003 9.88378 16.0067 10.1153 17.1705C10.3468 18.3344 10.9182 19.4035 11.7574 20.2426C12.5965 21.0818 13.6656 21.6532 14.8295 21.8847C15.9933 22.1162 17.1997 21.9974 18.2961 21.5433C19.3925 21.0892 20.3295 20.3201 20.9888 19.3334C21.6481 18.3467 22 17.1867 22 16C22 14.4087 21.3679 12.8826 20.2426 11.7574C19.1174 10.6321 17.5913 10 16 10Z" fill="white"/>
</svg>
