<svg width="17" height="20" viewBox="0 0 17 20" fill="none" xmlns="http://www.w3.org/2000/svg">
<path d="M1.41096 1.008C1.58581 0.701892 1.83847 0.447439 2.14333 0.270422C2.44819 0.093405 2.79443 0.000113708 3.14696 0H13.415C13.7675 0.000113708 14.1137 0.093405 14.4186 0.270422C14.7234 0.447439 14.9761 0.701892 15.151 1.008L16.294 3.008C16.942 4.142 16.343 5.511 15.204 5.895C15.209 5.977 15.208 6.059 15.202 6.142L14.345 18.142C14.309 18.6466 14.0833 19.1188 13.7131 19.4636C13.3429 19.8083 12.8558 20 12.35 20H4.21096C3.7051 20 3.21802 19.8083 2.84784 19.4636C2.47766 19.1188 2.25187 18.6466 2.21596 18.142L1.35896 6.142C1.35293 6.0598 1.35192 5.97732 1.35596 5.895C0.217956 5.511 -0.381044 4.142 0.265956 3.008L1.40996 1.008H1.41096ZM3.35496 6L3.56896 9H12.993L13.207 6H3.35496ZM3.99796 15L4.21196 18H12.35L12.564 15H3.99796ZM14.558 4L13.415 2H3.14696L2.00396 4H14.558Z" fill="#7140DA"/>
</svg>
